HIERARCHY
ROOT Hips
{
	OFFSET 0.000000 88.474243 0.000000
	CHANNELS 6 Xposition Yposition Zposition Zrotation Yrotation Xrotation 
	JOINT Hips_Spine
	{
		OFFSET 0.000000 0.000000 0.000000
		CHANNELS 3 Zrotation Yrotation Xrotation
		JOINT Spine
		{
			OFFSET 0.005100 8.711998 -0.691000
			CHANNELS 3 Zrotation Yrotation Xrotation
			JOINT Spine1
			{
				OFFSET -0.009200 8.660301 -1.275000
				CHANNELS 3 Zrotation Yrotation Xrotation
				JOINT Spine2
				{
					OFFSET 0.006300 9.852501 -1.857000
					CHANNELS 3 Zrotation Yrotation Xrotation
					JOINT Spine2_Neck
					{
						OFFSET 0.000000 0.000000 0.000000
						CHANNELS 3 Zrotation Yrotation Xrotation
						JOINT Neck
						{
							OFFSET 0.016300 11.420799 -0.263300
							CHANNELS 3 Zrotation Yrotation Xrotation
							End Site #name: Head
							{
								OFFSET -0.019200 9.262405 2.362500
							}
						}
					}
					JOINT Spine2_LeftShoulder
					{
						OFFSET 0.000000 0.000000 0.000000
						CHANNELS 3 Zrotation Yrotation Xrotation
						JOINT LeftShoulder
						{
							OFFSET 5.616900 6.732201 -0.345700
							CHANNELS 3 Zrotation Yrotation Xrotation
							JOINT LeftArm
							{
								OFFSET 10.664888 -0.183372 -2.440700
								CHANNELS 3 Zrotation Yrotation Xrotation
								JOINT LeftForeArm
								{
									OFFSET 27.459126 0.000000 0.000000
									CHANNELS 3 Zrotation Yrotation Xrotation
									End Site #name: LeftHand
									{
										OFFSET 21.306858 0.000000 0.000000
									}
								}
							}
						}
					}
					JOINT Spine2_RightShoulder
					{
						OFFSET 0.000000 0.000000 0.000000
						CHANNELS 3 Zrotation Yrotation Xrotation
						JOINT RightShoulder
						{
							OFFSET -5.580300 6.737503 -0.344400
							CHANNELS 3 Zrotation Yrotation Xrotation
							JOINT RightArm
							{
								OFFSET -10.679335 -0.188484 -2.383900
								CHANNELS 3 Zrotation Yrotation Xrotation
								JOINT RightForeArm
								{
									OFFSET -27.503529 0.000000 0.000000
									CHANNELS 3 Zrotation Yrotation Xrotation
									End Site #name: RightHand
									{
										OFFSET -21.306808 0.000000 0.000000
									}
								}
							}
						}
					}
				}
			}
		}
	}
	JOINT Hips_LeftUpLeg
	{
		OFFSET 0.000000 0.000000 0.000000
		CHANNELS 3 Zrotation Yrotation Xrotation
		JOINT LeftUpLeg
		{
			OFFSET 6.857700 -6.739601 0.312100
			CHANNELS 3 Zrotation Yrotation Xrotation
			JOINT LeftLeg
			{
				OFFSET -0.367590 -34.731552 -4.572400
				CHANNELS 3 Zrotation Yrotation Xrotation
				End Site #name: LeftFoot
				{
					OFFSET 0.367590 -34.656704 -6.067400
				}
			}
		}
	}
	JOINT Hips_RightUpLeg
	{
		OFFSET 0.000000 0.000000 0.000000
		CHANNELS 3 Zrotation Yrotation Xrotation
		JOINT RightUpLeg
		{
			OFFSET -6.876100 -6.733299 0.301000
			CHANNELS 3 Zrotation Yrotation Xrotation
			JOINT RightLeg
			{
				OFFSET 0.347353 -34.795158 -4.515900
				CHANNELS 3 Zrotation Yrotation Xrotation
				End Site #name: RightFoot
				{
					OFFSET -0.347353 -34.589367 -6.070300
				}
			}
		}
	}
}
MOTION
Frames: 7
Frame Time: 0.041667
-0.035888 0.028587 0.086104 0.018586 2.526599 -0.845893 0.000000 0.000000 0.000000 0.784053 1.232422 1.040811 1.186165 -0.447228 3.472256 0.000000 0.000000 0.000000 1.184372 0.161754 4.220406 1.545417 -2.688872 6.833082 0.601870 0.711398 4.561437 -6.158929 -22.426005 3.810966 -34.252217 -7.277232 -17.174128 9.914857 -40.261272 26.517311 1.038275 -0.193786 5.119540 7.304417 5.558164 1.862334 41.123271 38.572894 -4.791156 -9.965264 24.469611 27.009691 0.000000 0.000000 0.000000 0.062979 3.464610 -17.397484 2.302694 2.385396 20.770221 -0.000000 0.000000 0.000000 2.356734 -7.003820 -14.892486 -2.137441 -3.637098 19.769429 
-0.062232 0.094040 0.083667 0.475004 2.781951 -0.842334 0.000000 0.000000 0.000000 0.306433 -0.006066 1.653365 0.280417 0.437792 4.187153 0.000000 0.000000 0.000000 0.265253 0.232078 4.659536 -0.124347 -1.766292 8.684403 0.354591 -0.152915 4.490340 -8.728166 -16.067382 3.546787 -38.756438 -14.751314 -10.945261 4.822638 -30.467236 29.664902 0.296752 0.036061 3.812111 5.439832 9.813400 2.439352 21.864454 39.602496 -12.300769 -6.337776 7.389549 29.510995 0.000000 -0.000000 0.000000 -0.300619 2.861951 -16.034926 1.355563 1.395524 18.630541 -0.000000 0.000000 0.000000 1.618433 -6.477558 -14.139099 -0.821495 -2.772393 18.045014 
-0.093160 0.096739 0.071652 0.632408 1.935760 -1.048305 -0.000000 0.000000 0.000000 0.332971 -0.060162 1.711870 0.471810 0.546634 3.433869 0.000000 0.000000 0.000000 0.362638 0.531880 3.289879 -1.184472 -2.104697 7.496590 0.522522 0.321539 3.072895 -9.354507 -14.986051 3.420470 -36.201995 -11.512454 -12.444929 4.528270 -26.461070 27.994525 0.324564 0.366578 3.078633 3.709324 13.152046 2.115448 22.966706 36.923217 -11.242931 -4.104832 2.314425 21.392007 0.000000 -0.000000 0.000000 -0.352141 2.627942 -15.436370 0.478661 -0.003053 18.069196 -0.000000 0.000000 0.000000 1.357584 -6.764598 -13.829643 -0.477246 -2.381468 17.785598 
-0.115403 0.078859 0.049327 0.690165 1.276076 -1.082305 -0.000000 0.000000 0.000000 0.108309 -0.082296 1.605037 0.550838 0.606982 3.320255 0.000000 0.000000 0.000000 0.416852 0.811763 3.108978 -1.675941 -2.029265 6.850009 0.576903 0.558769 2.991228 -9.212393 -15.426510 3.392626 -36.088320 -10.422478 -9.650191 5.076347 -27.036054 26.947864 0.486331 0.625778 3.186022 3.002314 14.033524 1.952289 20.809809 37.187031 -12.653228 -3.443676 2.939578 15.660001 0.000000 -0.000000 0.000000 -0.426837 2.477816 -15.249277 -0.150983 -1.213081 17.778742 -0.000000 0.000000 0.000000 1.336424 -7.015512 -13.898630 -0.558600 -2.227575 17.874949 
-0.115733 0.062490 0.028817 0.677745 1.040824 -1.022438 -0.000000 0.000000 0.000000 0.159089 -0.227285 1.754269 0.562132 0.506773 3.500105 0.000000 0.000000 0.000000 0.427549 0.819594 3.257297 -1.894459 -2.063886 6.788827 0.571843 0.427384 3.129521 -9.174735 -16.011599 3.510880 -37.653240 -11.971295 -6.459479 5.607021 -27.540774 27.193894 0.534829 0.600510 3.383356 3.128907 14.107110 2.007688 16.692676 39.609701 -13.029235 -3.051696 4.506687 13.771247 0.000000 -0.000000 0.000000 -0.386429 2.257640 -15.240026 -0.742020 -2.053818 17.666505 -0.000000 0.000000 0.000000 1.332962 -7.258435 -14.032717 -0.644634 -2.325054 17.973345 
-0.099716 0.047951 0.011943 0.642289 0.896168 -0.967415 -0.000000 0.000000 0.000000 0.187943 -0.371417 1.895685 0.564674 0.290517 3.651431 0.000000 0.000000 0.000000 0.423600 0.682828 3.379844 -2.031497 -2.161980 6.713787 0.593235 0.174812 3.291918 -9.232242 -16.572810 3.627622 -38.753985 -13.003410 -3.903292 5.836383 -28.300039 27.967255 0.563421 0.436959 3.541936 3.060150 14.323664 2.031153 13.176240 43.080352 -14.406589 -2.843254 5.742036 13.577349 0.000000 -0.000000 0.000000 -0.320366 1.988974 -15.306975 -1.057072 -2.369249 17.725630 -0.000000 0.000000 0.000000 1.334356 -7.393840 -14.131233 -0.683727 -2.418853 18.074047 
-0.074152 0.035976 -0.003068 0.602213 0.818730 -0.943580 -0.000000 0.000000 0.000000 0.227141 -0.454676 1.948472 0.578413 0.097597 3.741861 0.000000 0.000000 0.000000 0.423388 0.516749 3.465289 -2.155188 -2.273958 6.397148 0.603521 -0.033116 3.384390 -9.176034 -16.862515 3.684085 -39.608548 -13.562404 -2.830074 5.697979 -29.062957 28.714770 0.579887 0.269356 3.586883 3.307137 14.472431 2.065323 11.299179 44.876142 -15.956757 -2.687471 5.522263 13.629078 0.000000 0.000000 0.000000 -0.278902 1.754290 -15.313415 -1.167683 -2.362692 17.733244 -0.000000 0.000000 0.000000 1.356578 -7.460468 -14.193682 -0.723044 -2.480646 18.156745 
